<mxfile host="app.diagrams.net" modified="2023-01-12T01:19:58.803Z" agent="5.0 (Windows NT 10.0; Win64; x64) AppleWebKit/537.36 (KHTML, like Gecko) Chrome/109.0.0.0 Safari/537.36" version="20.8.3" etag="PmAftDmlzfGoFknBkqSK" type="github">
  <diagram id="4UGS70T6pS7fa50KOtkz" name="Page-1">
    <mxGraphModel dx="1434" dy="746" grid="1" gridSize="10" guides="1" tooltips="1" connect="1" arrows="1" fold="1" page="1" pageScale="1" pageWidth="1169" pageHeight="827" math="0" shadow="0">
      <root>
        <mxCell id="0" />
        <mxCell id="1" parent="0" />
        <mxCell id="MTHTZEGajYPyhNdtFony-68" style="edgeStyle=orthogonalEdgeStyle;rounded=0;orthogonalLoop=1;jettySize=auto;html=1;exitX=0.5;exitY=1;exitDx=0;exitDy=0;entryX=0.453;entryY=-0.002;entryDx=0;entryDy=0;entryPerimeter=0;fontColor=#FFFFFF;" edge="1" parent="1" source="MTHTZEGajYPyhNdtFony-1" target="MTHTZEGajYPyhNdtFony-7">
          <mxGeometry relative="1" as="geometry" />
        </mxCell>
        <mxCell id="MTHTZEGajYPyhNdtFony-69" style="edgeStyle=orthogonalEdgeStyle;rounded=0;orthogonalLoop=1;jettySize=auto;html=1;exitX=0.5;exitY=1;exitDx=0;exitDy=0;entryX=0.5;entryY=0;entryDx=0;entryDy=0;fontColor=#FFFFFF;" edge="1" parent="1" source="MTHTZEGajYPyhNdtFony-1" target="MTHTZEGajYPyhNdtFony-10">
          <mxGeometry relative="1" as="geometry" />
        </mxCell>
        <mxCell id="MTHTZEGajYPyhNdtFony-1" value="Identity Server" style="swimlane;whiteSpace=wrap;html=1;swimlaneFillColor=#000000;fillColor=#000000;" vertex="1" parent="1">
          <mxGeometry x="70" y="20" width="800" height="50" as="geometry" />
        </mxCell>
        <mxCell id="MTHTZEGajYPyhNdtFony-7" value="Clients" style="swimlane;whiteSpace=wrap;html=1;fillColor=#FFFFFF;fontColor=#000000;" vertex="1" parent="1">
          <mxGeometry x="70" y="150" width="190" height="470" as="geometry" />
        </mxCell>
        <mxCell id="MTHTZEGajYPyhNdtFony-2" value="" style="sketch=0;points=[[0,0,0],[0.25,0,0],[0.5,0,0],[0.75,0,0],[1,0,0],[0,1,0],[0.25,1,0],[0.5,1,0],[0.75,1,0],[1,1,0],[0,0.25,0],[0,0.5,0],[0,0.75,0],[1,0.25,0],[1,0.5,0],[1,0.75,0]];outlineConnect=0;fontColor=#232F3E;gradientColor=#4AB29A;gradientDirection=north;fillColor=#116D5B;strokeColor=#ffffff;dashed=0;verticalLabelPosition=bottom;verticalAlign=top;align=center;html=1;fontSize=12;fontStyle=0;aspect=fixed;shape=mxgraph.aws4.resourceIcon;resIcon=mxgraph.aws4.desktop_and_app_streaming;" vertex="1" parent="MTHTZEGajYPyhNdtFony-7">
          <mxGeometry x="56" y="80" width="78" height="78" as="geometry" />
        </mxCell>
        <mxCell id="MTHTZEGajYPyhNdtFony-3" value="" style="sketch=0;outlineConnect=0;fontColor=#232F3E;gradientColor=none;fillColor=#067F68;strokeColor=none;dashed=0;verticalLabelPosition=bottom;verticalAlign=top;align=center;html=1;fontSize=12;fontStyle=0;aspect=fixed;shape=mxgraph.aws4.workspaces_workspaces_web;" vertex="1" parent="MTHTZEGajYPyhNdtFony-7">
          <mxGeometry x="50" y="240" width="78" height="74" as="geometry" />
        </mxCell>
        <mxCell id="MTHTZEGajYPyhNdtFony-62" value="Client Applications" style="text;html=1;strokeColor=none;fillColor=none;align=center;verticalAlign=middle;whiteSpace=wrap;rounded=0;fontColor=#FFFFFF;" vertex="1" parent="MTHTZEGajYPyhNdtFony-7">
          <mxGeometry x="56" y="170" width="60" height="30" as="geometry" />
        </mxCell>
        <mxCell id="MTHTZEGajYPyhNdtFony-63" value="Juno API Manager" style="text;html=1;strokeColor=none;fillColor=none;align=center;verticalAlign=middle;whiteSpace=wrap;rounded=0;fontColor=#FFFFFF;" vertex="1" parent="MTHTZEGajYPyhNdtFony-7">
          <mxGeometry x="59" y="330" width="60" height="30" as="geometry" />
        </mxCell>
        <mxCell id="MTHTZEGajYPyhNdtFony-10" value="Horizontal Tree Layout" style="swimlane;startSize=0;horizontal=0;childLayout=treeLayout;horizontalTree=1;resizable=0;containerType=tree;fontSize=12;fontColor=#000000;fillColor=#FFFFFF;" vertex="1" parent="1">
          <mxGeometry x="570" y="150" width="290" height="480" as="geometry" />
        </mxCell>
        <mxCell id="MTHTZEGajYPyhNdtFony-11" value="Juno API Gateway" style="whiteSpace=wrap;html=1;fontColor=#000000;fillColor=#FFFFFF;" vertex="1" parent="MTHTZEGajYPyhNdtFony-10">
          <mxGeometry x="20" y="220" width="100" height="40" as="geometry" />
        </mxCell>
        <mxCell id="MTHTZEGajYPyhNdtFony-12" value="Product Microservice" style="whiteSpace=wrap;html=1;fontColor=#000000;fillColor=#FFFFFF;" vertex="1" parent="MTHTZEGajYPyhNdtFony-10">
          <mxGeometry x="170" y="20" width="100" height="40" as="geometry" />
        </mxCell>
        <mxCell id="MTHTZEGajYPyhNdtFony-13" value="" style="edgeStyle=elbowEdgeStyle;elbow=vertical;html=1;rounded=1;curved=0;sourcePerimeterSpacing=0;targetPerimeterSpacing=0;startSize=6;endSize=6;fontColor=#000000;" edge="1" parent="MTHTZEGajYPyhNdtFony-10" source="MTHTZEGajYPyhNdtFony-11" target="MTHTZEGajYPyhNdtFony-12">
          <mxGeometry relative="1" as="geometry">
            <Array as="points">
              <mxPoint x="140" y="80" />
            </Array>
          </mxGeometry>
        </mxCell>
        <mxCell id="MTHTZEGajYPyhNdtFony-14" value="Customer Microservice" style="whiteSpace=wrap;html=1;fontColor=#000000;fillColor=#FFFFFF;" vertex="1" parent="MTHTZEGajYPyhNdtFony-10">
          <mxGeometry x="170" y="100" width="100" height="40" as="geometry" />
        </mxCell>
        <mxCell id="MTHTZEGajYPyhNdtFony-15" value="" style="edgeStyle=elbowEdgeStyle;elbow=vertical;html=1;rounded=1;curved=0;sourcePerimeterSpacing=0;targetPerimeterSpacing=0;startSize=6;endSize=6;fontColor=#000000;" edge="1" parent="MTHTZEGajYPyhNdtFony-10" source="MTHTZEGajYPyhNdtFony-11" target="MTHTZEGajYPyhNdtFony-14">
          <mxGeometry relative="1" as="geometry">
            <Array as="points">
              <mxPoint x="150" y="170" />
            </Array>
          </mxGeometry>
        </mxCell>
        <mxCell id="MTHTZEGajYPyhNdtFony-37" value="" style="edgeStyle=elbowEdgeStyle;elbow=vertical;html=1;rounded=1;curved=0;sourcePerimeterSpacing=0;targetPerimeterSpacing=0;startSize=6;endSize=6;fontColor=#000000;" edge="1" target="MTHTZEGajYPyhNdtFony-38" source="MTHTZEGajYPyhNdtFony-11" parent="MTHTZEGajYPyhNdtFony-10">
          <mxGeometry relative="1" as="geometry">
            <mxPoint x="420" y="-170" as="sourcePoint" />
          </mxGeometry>
        </mxCell>
        <mxCell id="MTHTZEGajYPyhNdtFony-38" value="Sales Microservice" style="whiteSpace=wrap;html=1;fontColor=#000000;fillColor=#FFFFFF;" vertex="1" parent="MTHTZEGajYPyhNdtFony-10">
          <mxGeometry x="170" y="180" width="100" height="40" as="geometry" />
        </mxCell>
        <mxCell id="MTHTZEGajYPyhNdtFony-41" value="" style="edgeStyle=elbowEdgeStyle;elbow=vertical;html=1;rounded=1;curved=0;sourcePerimeterSpacing=0;targetPerimeterSpacing=0;startSize=6;endSize=6;fontColor=#000000;" edge="1" target="MTHTZEGajYPyhNdtFony-42" source="MTHTZEGajYPyhNdtFony-11" parent="MTHTZEGajYPyhNdtFony-10">
          <mxGeometry relative="1" as="geometry">
            <mxPoint x="420" y="-90" as="sourcePoint" />
          </mxGeometry>
        </mxCell>
        <mxCell id="MTHTZEGajYPyhNdtFony-42" value="Purchasing Microservice" style="whiteSpace=wrap;html=1;fontColor=#000000;fillColor=#FFFFFF;" vertex="1" parent="MTHTZEGajYPyhNdtFony-10">
          <mxGeometry x="170" y="260" width="100" height="40" as="geometry" />
        </mxCell>
        <mxCell id="MTHTZEGajYPyhNdtFony-43" value="" style="edgeStyle=elbowEdgeStyle;elbow=vertical;html=1;rounded=1;curved=0;sourcePerimeterSpacing=0;targetPerimeterSpacing=0;startSize=6;endSize=6;fontColor=#000000;" edge="1" target="MTHTZEGajYPyhNdtFony-44" source="MTHTZEGajYPyhNdtFony-11" parent="MTHTZEGajYPyhNdtFony-10">
          <mxGeometry relative="1" as="geometry">
            <mxPoint x="420" y="30" as="sourcePoint" />
            <Array as="points">
              <mxPoint x="140" y="320" />
            </Array>
          </mxGeometry>
        </mxCell>
        <mxCell id="MTHTZEGajYPyhNdtFony-44" value="Currency Microservice" style="whiteSpace=wrap;html=1;fontColor=#000000;fillColor=#FFFFFF;" vertex="1" parent="MTHTZEGajYPyhNdtFony-10">
          <mxGeometry x="170" y="340" width="100" height="40" as="geometry" />
        </mxCell>
        <mxCell id="MTHTZEGajYPyhNdtFony-45" value="" style="edgeStyle=elbowEdgeStyle;elbow=vertical;html=1;rounded=1;curved=0;sourcePerimeterSpacing=0;targetPerimeterSpacing=0;startSize=6;endSize=6;fontColor=#000000;" edge="1" target="MTHTZEGajYPyhNdtFony-46" source="MTHTZEGajYPyhNdtFony-11" parent="MTHTZEGajYPyhNdtFony-10">
          <mxGeometry relative="1" as="geometry">
            <mxPoint x="420" y="190" as="sourcePoint" />
            <Array as="points">
              <mxPoint x="130" y="400" />
            </Array>
          </mxGeometry>
        </mxCell>
        <mxCell id="MTHTZEGajYPyhNdtFony-46" value="HR Microservice" style="whiteSpace=wrap;html=1;fontColor=#000000;fillColor=#FFFFFF;" vertex="1" parent="MTHTZEGajYPyhNdtFony-10">
          <mxGeometry x="170" y="420" width="100" height="40" as="geometry" />
        </mxCell>
        <mxCell id="MTHTZEGajYPyhNdtFony-64" value="" style="endArrow=classic;startArrow=classic;html=1;rounded=0;fontColor=#FFFFFF;entryX=0;entryY=0.25;entryDx=0;entryDy=0;" edge="1" parent="1" source="MTHTZEGajYPyhNdtFony-2" target="MTHTZEGajYPyhNdtFony-11">
          <mxGeometry width="50" height="50" relative="1" as="geometry">
            <mxPoint x="471" y="360" as="sourcePoint" />
            <mxPoint x="521" y="310" as="targetPoint" />
          </mxGeometry>
        </mxCell>
        <mxCell id="MTHTZEGajYPyhNdtFony-65" value="" style="endArrow=classic;startArrow=classic;html=1;rounded=0;fontColor=#FFFFFF;entryX=0;entryY=0.5;entryDx=0;entryDy=0;" edge="1" parent="1" target="MTHTZEGajYPyhNdtFony-11">
          <mxGeometry width="50" height="50" relative="1" as="geometry">
            <mxPoint x="190" y="419.99629629629624" as="sourcePoint" />
            <mxPoint x="556" y="420.9" as="targetPoint" />
          </mxGeometry>
        </mxCell>
        <mxCell id="MTHTZEGajYPyhNdtFony-66" value="Consume Microservices" style="text;html=1;strokeColor=none;fillColor=none;align=center;verticalAlign=middle;whiteSpace=wrap;rounded=0;fontColor=#FFFFFF;" vertex="1" parent="1">
          <mxGeometry x="400" y="290" width="60" height="30" as="geometry" />
        </mxCell>
        <mxCell id="MTHTZEGajYPyhNdtFony-67" value="Configure Microservices" style="text;html=1;strokeColor=none;fillColor=none;align=center;verticalAlign=middle;whiteSpace=wrap;rounded=0;fontColor=#FFFFFF;" vertex="1" parent="1">
          <mxGeometry x="390" y="414" width="60" height="30" as="geometry" />
        </mxCell>
        <mxCell id="MTHTZEGajYPyhNdtFony-70" value="Providers Authentication and Authrization for Entire Infrastructure" style="text;html=1;strokeColor=none;fillColor=none;align=center;verticalAlign=middle;whiteSpace=wrap;rounded=0;fontColor=#FFFFFF;" vertex="1" parent="1">
          <mxGeometry x="285" y="110" width="370" height="30" as="geometry" />
        </mxCell>
        <mxCell id="MTHTZEGajYPyhNdtFony-71" value="" style="shape=datastore;whiteSpace=wrap;html=1;fontColor=#FFFFFF;fillColor=#000000;" vertex="1" parent="1">
          <mxGeometry x="1010" y="160" width="60" height="60" as="geometry" />
        </mxCell>
        <mxCell id="MTHTZEGajYPyhNdtFony-72" value="" style="shape=datastore;whiteSpace=wrap;html=1;fontColor=#FFFFFF;fillColor=#000000;" vertex="1" parent="1">
          <mxGeometry x="1010" y="240" width="60" height="60" as="geometry" />
        </mxCell>
        <mxCell id="MTHTZEGajYPyhNdtFony-73" value="" style="shape=datastore;whiteSpace=wrap;html=1;fontColor=#FFFFFF;fillColor=#000000;" vertex="1" parent="1">
          <mxGeometry x="1010" y="320" width="60" height="60" as="geometry" />
        </mxCell>
        <mxCell id="MTHTZEGajYPyhNdtFony-74" value="" style="shape=datastore;whiteSpace=wrap;html=1;fontColor=#FFFFFF;fillColor=#000000;" vertex="1" parent="1">
          <mxGeometry x="1010" y="410" width="60" height="60" as="geometry" />
        </mxCell>
        <mxCell id="MTHTZEGajYPyhNdtFony-75" style="edgeStyle=orthogonalEdgeStyle;rounded=0;orthogonalLoop=1;jettySize=auto;html=1;exitX=1;exitY=0.5;exitDx=0;exitDy=0;entryX=0;entryY=0.5;entryDx=0;entryDy=0;fontColor=#FFFFFF;" edge="1" parent="1" source="MTHTZEGajYPyhNdtFony-12" target="MTHTZEGajYPyhNdtFony-71">
          <mxGeometry relative="1" as="geometry" />
        </mxCell>
        <mxCell id="MTHTZEGajYPyhNdtFony-76" style="edgeStyle=orthogonalEdgeStyle;rounded=0;orthogonalLoop=1;jettySize=auto;html=1;exitX=1;exitY=0.5;exitDx=0;exitDy=0;fontColor=#FFFFFF;" edge="1" parent="1" source="MTHTZEGajYPyhNdtFony-14" target="MTHTZEGajYPyhNdtFony-72">
          <mxGeometry relative="1" as="geometry" />
        </mxCell>
        <mxCell id="MTHTZEGajYPyhNdtFony-77" style="edgeStyle=orthogonalEdgeStyle;rounded=0;orthogonalLoop=1;jettySize=auto;html=1;exitX=1;exitY=0.5;exitDx=0;exitDy=0;entryX=0;entryY=0.5;entryDx=0;entryDy=0;fontColor=#FFFFFF;" edge="1" parent="1" source="MTHTZEGajYPyhNdtFony-38" target="MTHTZEGajYPyhNdtFony-73">
          <mxGeometry relative="1" as="geometry" />
        </mxCell>
        <mxCell id="MTHTZEGajYPyhNdtFony-81" value="" style="shape=datastore;whiteSpace=wrap;html=1;fontColor=#FFFFFF;fillColor=#000000;" vertex="1" parent="1">
          <mxGeometry x="1010" y="510" width="60" height="60" as="geometry" />
        </mxCell>
        <mxCell id="MTHTZEGajYPyhNdtFony-82" style="edgeStyle=orthogonalEdgeStyle;rounded=0;orthogonalLoop=1;jettySize=auto;html=1;exitX=1;exitY=0.5;exitDx=0;exitDy=0;entryX=0;entryY=0.5;entryDx=0;entryDy=0;fontColor=#FFFFFF;" edge="1" parent="1" source="MTHTZEGajYPyhNdtFony-44" target="MTHTZEGajYPyhNdtFony-81">
          <mxGeometry relative="1" as="geometry" />
        </mxCell>
        <mxCell id="MTHTZEGajYPyhNdtFony-83" style="edgeStyle=orthogonalEdgeStyle;rounded=0;orthogonalLoop=1;jettySize=auto;html=1;exitX=1;exitY=0.5;exitDx=0;exitDy=0;fontColor=#FFFFFF;" edge="1" parent="1" source="MTHTZEGajYPyhNdtFony-46" target="MTHTZEGajYPyhNdtFony-81">
          <mxGeometry relative="1" as="geometry" />
        </mxCell>
        <mxCell id="MTHTZEGajYPyhNdtFony-84" style="edgeStyle=orthogonalEdgeStyle;rounded=0;orthogonalLoop=1;jettySize=auto;html=1;exitX=1;exitY=0.5;exitDx=0;exitDy=0;entryX=0;entryY=0.5;entryDx=0;entryDy=0;fontColor=#FFFFFF;" edge="1" parent="1" source="MTHTZEGajYPyhNdtFony-42" target="MTHTZEGajYPyhNdtFony-74">
          <mxGeometry relative="1" as="geometry" />
        </mxCell>
        <mxCell id="MTHTZEGajYPyhNdtFony-85" value="MSSQL SERVER" style="text;html=1;strokeColor=none;fillColor=none;align=center;verticalAlign=middle;whiteSpace=wrap;rounded=0;fontColor=#FFFFFF;" vertex="1" parent="1">
          <mxGeometry x="890" y="200" width="100" height="30" as="geometry" />
        </mxCell>
        <mxCell id="MTHTZEGajYPyhNdtFony-86" value="MYSQL SERVER" style="text;html=1;strokeColor=none;fillColor=none;align=center;verticalAlign=middle;whiteSpace=wrap;rounded=0;fontColor=#FFFFFF;" vertex="1" parent="1">
          <mxGeometry x="890" y="280" width="100" height="30" as="geometry" />
        </mxCell>
        <mxCell id="MTHTZEGajYPyhNdtFony-87" value="Dynamo DB" style="text;html=1;strokeColor=none;fillColor=none;align=center;verticalAlign=middle;whiteSpace=wrap;rounded=0;fontColor=#FFFFFF;" vertex="1" parent="1">
          <mxGeometry x="890" y="360" width="100" height="30" as="geometry" />
        </mxCell>
        <mxCell id="MTHTZEGajYPyhNdtFony-88" value="SQLite Database" style="text;html=1;strokeColor=none;fillColor=none;align=center;verticalAlign=middle;whiteSpace=wrap;rounded=0;fontColor=#FFFFFF;" vertex="1" parent="1">
          <mxGeometry x="890" y="450" width="100" height="30" as="geometry" />
        </mxCell>
        <mxCell id="MTHTZEGajYPyhNdtFony-89" value="Shared Oracle database" style="text;html=1;strokeColor=none;fillColor=none;align=center;verticalAlign=middle;whiteSpace=wrap;rounded=0;fontColor=#FFFFFF;" vertex="1" parent="1">
          <mxGeometry x="900" y="600" width="100" height="30" as="geometry" />
        </mxCell>
      </root>
    </mxGraphModel>
  </diagram>
</mxfile>
